<svg width="24" height="24" viewBox="0 0 24 24" fill="none" xmlns="http://www.w3.org/2000/svg">
<path d="M6.90909 8.66667C6.90909 5.72115 9.05448 4 12 4C14.9455 4 17.0909 5.72115 17.0909 8.66667M6.90909 8.66667V15.3333C5.43633 15.3333 4 14.1394 4 12.6667V11.3333C4 9.86057 5.43633 8.66667 6.90909 8.66667ZM17.0909 8.66667V15.3333C17.3892 15.3333 17.9184 15.2844 18.1862 15.194M17.0909 8.66667C18.5637 8.66667 20 9.86057 20 11.3333V12.6667C20 13.8412 19.2407 14.8383 18.1862 15.194M18.1862 15.194C18.1862 15.194 18.9091 18.5455 14.5455 18.5455M14.5455 18.5455C14.5455 19.2818 13.9485 20 13.2121 20H10.5455C9.80908 20 9.09091 19.2818 9.09091 18.5455C9.09091 17.8091 9.80908 17.0909 10.5455 17.0909H13.2121C13.9485 17.0909 14.5455 17.8091 14.5455 18.5455Z" stroke="#161616" stroke-width="1.4" stroke-linecap="round" stroke-linejoin="round"/>
</svg>
