<svg width="20" height="17" viewBox="0 0 20 17" fill="none" xmlns="http://www.w3.org/2000/svg">
<path d="M13.4615 3.72727L13.4615 2C13.4615 1.44772 13.0138 1 12.4615 1H2C1.44772 1 1 1.44771 1 2L1 8.1809C1 8.57796 1.32188 8.89984 1.71894 8.89984V8.89984M13.4615 3.72727L13.4615 7.89983C13.4615 8.45212 13.0138 8.89984 12.4615 8.89984L11.3846 8.89984M13.4615 3.72727H15.5385H16.8166L19 7.13636V8.5V12.2727C19 12.825 18.5523 13.2727 18 13.2727H17.5756M11.3846 8.89984L8.18935 8.89984H1.71894M11.3846 8.89984V13.2727M11.3846 13.2727H8.18935H7.56186M11.3846 13.2727H13.798M1.71894 8.89984L1.71894 12.2727C1.71894 12.825 2.16665 13.2727 2.71894 13.2727H3.78429M7.67583 13.9545C7.67583 15.0842 6.77916 16 5.67308 16C4.56699 16 3.67033 15.0842 3.67033 13.9545C3.67033 12.8249 4.56699 11.9091 5.67308 11.9091C6.77916 11.9091 7.67583 12.8249 7.67583 13.9545ZM17.6896 13.9545C17.6896 15.0842 16.7929 16 15.6868 16C14.5807 16 13.6841 15.0842 13.6841 13.9545C13.6841 12.8249 14.5807 11.9091 15.6868 11.9091C16.7929 11.9091 17.6896 12.8249 17.6896 13.9545Z" stroke="#161616" stroke-width="1.4"/>
</svg>
