<svg width="24" height="24" viewBox="0 0 24 24" fill="none" xmlns="http://www.w3.org/2000/svg">
<path d="M15.4615 7.72727L15.4615 6C15.4615 5.44772 15.0138 5 14.4615 5H4C3.44772 5 3 5.44771 3 6L3 12.1809C3 12.578 3.32188 12.8998 3.71894 12.8998V12.8998M15.4615 7.72727L15.4615 11.8998C15.4615 12.4521 15.0138 12.8998 14.4615 12.8998L13.3846 12.8998M15.4615 7.72727H17.5385H18.8166L21 11.1364V12.5V16.2727C21 16.825 20.5523 17.2727 20 17.2727H19.5756M13.3846 12.8998L10.1894 12.8998H3.71894M13.3846 12.8998V17.2727M13.3846 17.2727H10.1894H9.56186M13.3846 17.2727H15.798M3.71894 12.8998L3.71894 16.2727C3.71894 16.825 4.16665 17.2727 4.71894 17.2727H5.78429M9.67583 17.9545C9.67583 19.0842 8.77916 20 7.67308 20C6.56699 20 5.67033 19.0842 5.67033 17.9545C5.67033 16.8249 6.56699 15.9091 7.67308 15.9091C8.77916 15.9091 9.67583 16.8249 9.67583 17.9545ZM19.6896 17.9545C19.6896 19.0842 18.7929 20 17.6868 20C16.5807 20 15.6841 19.0842 15.6841 17.9545C15.6841 16.8249 16.5807 15.9091 17.6868 15.9091C18.7929 15.9091 19.6896 16.8249 19.6896 17.9545Z" stroke="#161616" stroke-width="1.4"/>
</svg>
