<svg width="16" height="22" viewBox="0 0 16 22" fill="none" xmlns="http://www.w3.org/2000/svg">
<mask id="path-1-inside-1" fill="white">
<path d="M14 21.6666H2C0.895431 21.6666 0 20.7712 0 19.6666V2.33325C0 1.22868 0.895431 0.333252 2 0.333252H8L16 6.99992V19.6666C16 20.7712 15.1046 21.6666 14 21.6666Z"/>
</mask>
<path d="M14 21.6666H2C0.895431 21.6666 0 20.7712 0 19.6666V2.33325C0 1.22868 0.895431 0.333252 2 0.333252H8L16 6.99992V19.6666C16 20.7712 15.1046 21.6666 14 21.6666Z" fill="white"/>
<path d="M8.7 10.3333C8.7 9.94665 8.3866 9.63325 8 9.63325C7.6134 9.63325 7.3 9.94665 7.3 10.3333H8.7ZM8 16.9999L7.50503 17.4949L8 17.9899L8.49498 17.4949L8 16.9999ZM11.8283 14.1616C12.1017 13.8882 12.1017 13.445 11.8283 13.1716C11.5549 12.8982 11.1117 12.8982 10.8384 13.1716L11.8283 14.1616ZM5.16164 13.1716C4.88827 12.8982 4.44506 12.8982 4.17169 13.1716C3.89833 13.445 3.89833 13.8882 4.17169 14.1616L5.16164 13.1716ZM7.3 0.333252V5.99992H8.7V0.333252H7.3ZM9 7.69992H16V6.29992H9V7.69992ZM7.3 10.3333V16.9999H8.7V10.3333H7.3ZM8.49498 17.4949L11.8283 14.1616L10.8384 13.1716L7.50503 16.5049L8.49498 17.4949ZM8.49498 16.5049L5.16164 13.1716L4.17169 14.1616L7.50503 17.4949L8.49498 16.5049ZM7.3 5.99992C7.3 6.93881 8.06112 7.69992 9 7.69992V6.29992C8.83431 6.29992 8.7 6.1656 8.7 5.99992H7.3ZM16 6.99992H17.4V6.34419L16.8963 5.92441L16 6.99992ZM8 0.333252L8.89626 -0.742258L8.50687 -1.06675H8V0.333252ZM14 20.2666H2V23.0666H14V20.2666ZM1.4 19.6666V2.33325H-1.4V19.6666H1.4ZM14.6 6.99992V19.6666H17.4V6.99992H14.6ZM7.10374 1.40876L15.1037 8.07543L16.8963 5.92441L8.89626 -0.742258L7.10374 1.40876ZM8 -1.06675H2V1.73325H8V-1.06675ZM2 20.2666C1.66863 20.2666 1.4 19.998 1.4 19.6666H-1.4C-1.4 21.5444 0.122231 23.0666 2 23.0666V20.2666ZM14 23.0666C15.8778 23.0666 17.4 21.5443 17.4 19.6666H14.6C14.6 19.998 14.3314 20.2666 14 20.2666V23.0666ZM1.4 2.33325C1.4 2.00188 1.66863 1.73325 2 1.73325V-1.06675C0.12223 -1.06675 -1.4 0.455488 -1.4 2.33325H1.4Z" fill="#161616" mask="url(#path-1-inside-1)"/>
</svg>
