<svg width="24" height="24" viewBox="0 0 24 24" fill="none" xmlns="http://www.w3.org/2000/svg">
<path d="M16 14C16 14.6904 15.1256 15.299 13.7955 15.6584C12.9975 15.8741 12.0355 16 11 16C10.0124 16 9.09161 15.8855 8.31623 15.6878C8.05896 15.6222 7.81771 15.5474 7.59532 15.4647C6.61391 15.0995 6 14.5784 6 14C6 12.8954 8.23858 12 11 12C13.7614 12 16 12.8954 16 14Z" fill="#FCEF7D"/>
<path d="M16 17V14C16 14.6904 15.1256 15.299 13.7955 15.6584C13.7586 15.6684 13.7214 15.6782 13.6838 15.6878C12.9084 15.8855 11.9876 16 11 16C10.0124 16 9.09161 15.8855 8.31623 15.6878C8.05896 15.6222 7.81771 15.5474 7.59532 15.4647C6.61391 15.0995 6 14.5784 6 14V17C6 17.7095 6.92365 18.3327 8.31623 18.6878C9.09161 18.8855 10.0124 19 11 19C12.0029 19 12.9369 18.8819 13.7197 18.6785C15.0922 18.322 16 17.7034 16 17Z" fill="#FCEF7D"/>
<path d="M16 14C16 12.8954 13.7614 12 11 12C8.23858 12 6 12.8954 6 14M16 14V17C16 17.7034 15.0922 18.322 13.7197 18.6785C12.9369 18.8819 12.0029 19 11 19C10.0124 19 9.09161 18.8855 8.31623 18.6878C6.92365 18.3327 6 17.7095 6 17V14M16 14C16 14.6904 15.1256 15.299 13.7955 15.6584M11 16C10.0124 16 9.09161 15.8855 8.31623 15.6878C8.05896 15.6222 7.81771 15.5474 7.59532 15.4647C6.61391 15.0995 6 14.5784 6 14M11 16C11.9876 16 12.9084 15.8855 13.6838 15.6878C13.7214 15.6782 13.7586 15.6684 13.7955 15.6584M11 16C12.0355 16 12.9975 15.8741 13.7955 15.6584" stroke="#161616"/>
<path d="M19 10C19 10.6904 18.1256 11.299 16.7955 11.6584C16.7775 11.6633 16.7593 11.6682 16.741 11.673C15.9539 11.8797 15.0121 12 14 12C13.0124 12 12.0916 11.8855 11.3162 11.6878C11.059 11.6222 10.8177 11.5474 10.5953 11.4647C9.61391 11.0995 9 10.5784 9 10C9 8.89543 11.2386 8 14 8C16.7614 8 19 8.89543 19 10Z" fill="#FCEF7D"/>
<path d="M19 13V10C19 10.6904 18.1256 11.299 16.7955 11.6584C16.7775 11.6633 16.7593 11.6682 16.741 11.673C16.7339 11.6748 16.7268 11.6767 16.7197 11.6785C15.9369 11.8819 15.0029 12 14 12C13.0124 12 12.0916 11.8855 11.3162 11.6878C11.059 11.6222 10.8177 11.5474 10.5953 11.4647C9.61391 11.0995 9 10.5784 9 10V13C9 13.7095 9.92365 14.3327 11.3162 14.6878C12.0916 14.8855 13.0124 15 14 15C15.0029 15 15.9369 14.8819 16.7197 14.6785C18.0922 14.322 19 13.7034 19 13Z" fill="#FCEF7D"/>
<path d="M19 10C19 8.89543 16.7614 8 14 8C11.2386 8 9 8.89543 9 10M19 10V13C19 13.7034 18.0922 14.322 16.7197 14.6785C15.9369 14.8819 15.0029 15 14 15C13.0124 15 12.0916 14.8855 11.3162 14.6878C9.92365 14.3327 9 13.7095 9 13V10M19 10C19 10.6904 18.1256 11.299 16.7955 11.6584C16.7775 11.6633 16.7593 11.6682 16.741 11.673M14 12C13.0124 12 12.0916 11.8855 11.3162 11.6878C11.059 11.6222 10.8177 11.5474 10.5953 11.4647C9.61391 11.0995 9 10.5784 9 10M14 12C15.0029 12 15.9369 11.8819 16.7197 11.6785C16.7268 11.6767 16.7339 11.6748 16.741 11.673M14 12C15.0121 12 15.9539 11.8797 16.741 11.673" stroke="#161616"/>
<path d="M15 6C15 6.69036 14.1256 7.29902 12.7955 7.65843C12.7775 7.66332 12.7593 7.66816 12.741 7.67295C11.9539 7.87972 11.0121 8 10 8C9.01236 8 8.09161 7.88546 7.31623 7.68777C7.05896 7.62219 6.81771 7.54744 6.59532 7.4647C5.61391 7.09953 5 6.57844 5 6C5 4.89543 7.23858 4 10 4C12.7614 4 15 4.89543 15 6Z" fill="#FCEF7D"/>
<path d="M15 9V6C15 6.69036 14.1256 7.29902 12.7955 7.65843C12.7775 7.66332 12.7593 7.66816 12.741 7.67295C12.7339 7.67482 12.7268 7.67667 12.7197 7.67852C11.9369 7.88188 11.0029 8 10 8C9.01236 8 8.09161 7.88546 7.31623 7.68777C7.05896 7.62219 6.81771 7.54744 6.59532 7.4647C5.61391 7.09953 5 6.57844 5 6V9C5 9.70951 5.92365 10.3327 7.31623 10.6878C8.09161 10.8855 9.01236 11 10 11C11.0029 11 11.9369 10.8819 12.7197 10.6785C14.0922 10.322 15 9.70339 15 9Z" fill="#FCEF7D"/>
<path d="M15 6C15 4.89543 12.7614 4 10 4C7.23858 4 5 4.89543 5 6M15 6V9C15 9.70339 14.0922 10.322 12.7197 10.6785C11.9369 10.8819 11.0029 11 10 11C9.01236 11 8.09161 10.8855 7.31623 10.6878C5.92365 10.3327 5 9.70951 5 9V6M15 6C15 6.69036 14.1256 7.29902 12.7955 7.65843C12.7775 7.66332 12.7593 7.66816 12.741 7.67295M10 8C9.01236 8 8.09161 7.88546 7.31623 7.68777C7.05896 7.62219 6.81771 7.54744 6.59532 7.4647C5.61391 7.09953 5 6.57844 5 6M10 8C11.0029 8 11.9369 7.88188 12.7197 7.67852C12.7268 7.67667 12.7339 7.67482 12.741 7.67295M10 8C11.0121 8 11.9539 7.87972 12.741 7.67295" stroke="#161616"/>
</svg>
