<svg width="24" height="24" viewBox="0 0 24 24" fill="none" xmlns="http://www.w3.org/2000/svg">
<path d="M3 2.3C2.6134 2.3 2.3 2.6134 2.3 3C2.3 3.3866 2.6134 3.7 3 3.7V2.3ZM6.25835 3H6.95835V2.3H6.25835V3ZM6.25835 15.7103H5.55835V16.4103H6.25835V15.7103ZM20 16.4103C20.3866 16.4103 20.7 16.0969 20.7 15.7103C20.7 15.3237 20.3866 15.0103 20 15.0103V16.4103ZM3 3.7H6.25835V2.3H3V3.7ZM5.55835 3V15.7103H6.95835V3H5.55835ZM6.25835 16.4103H20V15.0103H6.25835V16.4103Z" fill="#161616"/>
<circle cx="9" cy="19" r="2" stroke="#161616" stroke-width="1.4"/>
<circle cx="17" cy="19" r="2" stroke="#161616" stroke-width="1.4"/>
<rect x="8.7" y="3.7" width="9.6" height="9.6" stroke="#161616" stroke-width="1.4"/>
</svg>
