<svg width="16" height="16" viewBox="0 0 16 16" fill="none" xmlns="http://www.w3.org/2000/svg">
<path d="M1.5 14.5L0.809524 14.3849C0.772359 14.6079 0.845173 14.8352 1.00503 14.995C1.16488 15.1549 1.39209 15.2277 1.61508 15.1905L1.5 14.5ZM2.5 8.50002L2.00503 8.00505L1.84641 8.16367L1.80953 8.38494L2.5 8.50002ZM7.5 13.5L7.61508 14.1905L7.83636 14.1536L7.99498 13.995L7.5 13.5ZM14 7.00003L14.495 7.495L14 7.00003ZM12.3801 5.3801L12.875 4.88512L12.3801 5.3801ZM4.19004 10.1901L3.69506 10.685L4.19004 10.1901ZM2.19048 14.6151L3.19048 8.6151L1.80953 8.38494L0.809524 14.3849L2.19048 14.6151ZM7.38492 12.8095L1.38492 13.8096L1.61508 15.1905L7.61508 14.1905L7.38492 12.8095ZM2.99498 8.995L9.49497 2.495L8.50503 1.50505L2.00503 8.00505L2.99498 8.995ZM7.99498 13.995L14.495 7.495L13.505 6.50505L7.00503 13.005L7.99498 13.995ZM9 2.00003C9.49497 2.495 9.49474 2.49524 9.49452 2.49546C9.49446 2.49552 9.49424 2.49574 9.49412 2.49586C9.49387 2.49611 9.49366 2.49632 9.49348 2.49649C9.49313 2.49685 9.49292 2.49705 9.49285 2.49711C9.49272 2.49724 9.49317 2.4968 9.49418 2.49583C9.49619 2.49387 9.50046 2.48977 9.5069 2.48375C9.51978 2.4717 9.54127 2.45202 9.57076 2.42647C9.6299 2.37522 9.72011 2.30125 9.83655 2.21808C10.0722 2.04978 10.4003 1.85447 10.7839 1.72661C11.1645 1.59972 11.5858 1.54356 12.0268 1.63175C12.4626 1.71891 12.9666 1.95662 13.505 2.495L14.495 1.50505C13.7834 0.793442 13.0374 0.40615 12.3013 0.258935C11.5704 0.112753 10.898 0.212841 10.3411 0.398451C9.78722 0.583091 9.33408 0.856527 9.02282 1.07885C8.86582 1.19099 8.74119 1.29281 8.65385 1.36851C8.61009 1.40643 8.57543 1.43803 8.55048 1.46137C8.53799 1.47305 8.52791 1.48269 8.52032 1.49004C8.51652 1.49372 8.51334 1.49683 8.51079 1.49934C8.50951 1.5006 8.5084 1.5017 8.50743 1.50266C8.50695 1.50313 8.50651 1.50357 8.50611 1.50397C8.50591 1.50417 8.50564 1.50444 8.50554 1.50454C8.50528 1.5048 8.50503 1.50505 9 2.00003ZM13.505 2.495C14.0434 3.03339 14.2811 3.53745 14.3683 3.97325C14.4565 4.41421 14.4003 4.8355 14.2734 5.21617C14.1456 5.59975 13.9502 5.92786 13.7819 6.16348C13.6988 6.27992 13.6248 6.37013 13.5736 6.42927C13.548 6.45876 13.5283 6.48024 13.5163 6.49313C13.5103 6.49957 13.5062 6.50384 13.5042 6.50585C13.5032 6.50686 13.5028 6.50731 13.5029 6.50718C13.503 6.50711 13.5032 6.5069 13.5035 6.50655C13.5037 6.50637 13.5039 6.50616 13.5042 6.50591C13.5043 6.50579 13.5045 6.50557 13.5046 6.50551C13.5048 6.50529 13.505 6.50505 14 7.00003C14.495 7.495 14.4952 7.49475 14.4955 7.49449C14.4956 7.49439 14.4959 7.49412 14.4961 7.49392C14.4965 7.49352 14.4969 7.49308 14.4974 7.4926C14.4983 7.49163 14.4994 7.49051 14.5007 7.48924C14.5032 7.48669 14.5063 7.48351 14.51 7.47971C14.5173 7.47212 14.527 7.46204 14.5387 7.44955C14.562 7.4246 14.5936 7.38994 14.6315 7.34618C14.7072 7.25883 14.809 7.13421 14.9212 6.97721C15.1435 6.66595 15.4169 6.21281 15.6016 5.65889C15.7872 5.10206 15.8873 4.4296 15.7411 3.69869C15.5939 2.96261 15.2066 2.21667 14.495 1.50505L13.505 2.495ZM11.8851 5.87507L13.505 7.495L14.495 6.50505L12.875 4.88512L11.8851 5.87507ZM5.3851 12.3751L7.00503 13.995L7.99498 13.005L6.37505 11.3851L5.3851 12.3751ZM11.8851 4.88512L5.3851 11.3851L6.37505 12.3751L12.875 5.87507L11.8851 4.88512ZM8.50502 2.495L10.1951 4.18504L11.185 3.19509L9.49498 1.50505L8.50502 2.495ZM10.1951 4.18504L11.8851 5.87507L12.875 4.88512L11.185 3.19509L10.1951 4.18504ZM2.00503 8.995L3.69506 10.685L4.68501 9.69508L2.99498 8.00505L2.00503 8.995ZM3.69506 10.685L5.3851 12.3751L6.37505 11.3851L4.68501 9.69508L3.69506 10.685ZM10.1951 3.19509L3.69506 9.69508L4.68501 10.685L11.185 4.18504L10.1951 3.19509Z" fill="#161616"/>
</svg>
