<svg width="24" height="24" viewBox="0 0 24 24" fill="none" xmlns="http://www.w3.org/2000/svg">
<path d="M12 21L11.424 21.3978L12 22.2317L12.576 21.3978L12 21ZM17.3 9C17.3 9.66944 16.982 10.716 16.4216 11.9914C15.8739 13.2381 15.1382 14.6094 14.3945 15.8914C13.6521 17.1711 12.9088 18.35 12.3504 19.2097C12.0715 19.6393 11.8392 19.9884 11.6769 20.2297C11.5958 20.3503 11.5322 20.444 11.4891 20.5072C11.4675 20.5388 11.4511 20.5628 11.4401 20.5788C11.4346 20.5868 11.4305 20.5928 11.4278 20.5967C11.4265 20.5986 11.4255 20.6001 11.4249 20.601C11.4245 20.6014 11.4243 20.6018 11.4242 20.602C11.4241 20.6021 11.4241 20.6021 11.424 20.6022C11.424 20.6022 11.424 20.6022 12 21C12.576 21.3978 12.576 21.3978 12.5761 21.3976C12.5762 21.3976 12.5763 21.3974 12.5764 21.3972C12.5766 21.3969 12.5769 21.3964 12.5773 21.3958C12.5781 21.3947 12.5793 21.3929 12.5809 21.3907C12.5839 21.3863 12.5884 21.3797 12.5943 21.3712C12.606 21.3541 12.6233 21.3289 12.6457 21.2961C12.6904 21.2304 12.7558 21.1342 12.8387 21.0109C13.0046 20.7642 13.241 20.4088 13.5246 19.9723C14.0912 19.0997 14.8479 17.8999 15.6055 16.5939C16.3618 15.2901 17.1261 13.8685 17.7034 12.5545C18.268 11.2693 18.7 9.98741 18.7 9H17.3ZM12 3.7C14.9271 3.7 17.3 6.07289 17.3 9H18.7C18.7 5.29969 15.7003 2.3 12 2.3V3.7ZM6.7 9C6.7 6.07289 9.07289 3.7 12 3.7V2.3C8.29969 2.3 5.3 5.29969 5.3 9H6.7ZM12 21C12.576 20.6022 12.576 20.6022 12.576 20.6022C12.5759 20.6021 12.5759 20.6021 12.5758 20.602C12.5757 20.6018 12.5755 20.6014 12.5751 20.601C12.5745 20.6001 12.5735 20.5986 12.5722 20.5967C12.5695 20.5928 12.5654 20.5868 12.5599 20.5788C12.5489 20.5628 12.5325 20.5388 12.5109 20.5072C12.4678 20.444 12.4042 20.3503 12.3231 20.2297C12.1608 19.9884 11.9285 19.6393 11.6496 19.2097C11.0912 18.35 10.3479 17.1711 9.6055 15.8914C8.8618 14.6094 8.12608 13.2381 7.57838 11.9914C7.01804 10.716 6.7 9.66944 6.7 9H5.3C5.3 9.98741 5.73196 11.2693 6.29662 12.5545C6.87392 13.8685 7.6382 15.2901 8.3945 16.5939C9.15214 17.8999 9.90876 19.0997 10.4754 19.9723C10.759 20.4088 10.9954 20.7642 11.1613 21.0109C11.2442 21.1342 11.3096 21.2304 11.3543 21.2961C11.3767 21.3289 11.394 21.3541 11.4057 21.3712C11.4116 21.3797 11.4161 21.3863 11.4191 21.3907C11.4207 21.3929 11.4219 21.3947 11.4227 21.3958C11.4231 21.3964 11.4234 21.3969 11.4236 21.3972C11.4237 21.3974 11.4238 21.3976 11.4239 21.3976C11.424 21.3978 11.424 21.3978 12 21ZM14.3 9C14.3 10.2703 13.2703 11.3 12 11.3V12.7C14.0435 12.7 15.7 11.0435 15.7 9H14.3ZM12 6.7C13.2703 6.7 14.3 7.72975 14.3 9H15.7C15.7 6.95655 14.0435 5.3 12 5.3V6.7ZM9.7 9C9.7 7.72975 10.7297 6.7 12 6.7V5.3C9.95655 5.3 8.3 6.95655 8.3 9H9.7ZM12 11.3C10.7297 11.3 9.7 10.2703 9.7 9H8.3C8.3 11.0435 9.95655 12.7 12 12.7V11.3Z" fill="#161616"/>
</svg>
